<svg width="22" height="22" viewBox="0 0 22 22" fill="none" xmlns="http://www.w3.org/2000/svg">
<path d="M7.33333 9.86332H6.80167C6.07613 9.8371 5.35294 9.96027 4.67699 10.2252C4.00104 10.4901 3.38674 10.8911 2.87222 11.4033L2.72556 11.5744V16.6344H5.21889V13.7622L5.555 13.3833L5.70778 13.2061C6.5034 12.3887 7.49392 11.7873 8.58611 11.4583C8.03929 11.0422 7.60802 10.4932 7.33333 9.86332Z" fill="#36404B" fill-opacity="0.75"/>
<path d="M19.1522 11.385C18.6377 10.8728 18.0234 10.4718 17.3475 10.2069C16.6715 9.94196 15.9483 9.81879 15.2228 9.84501C15.0003 9.84564 14.7779 9.85788 14.5567 9.88168C14.2768 10.4726 13.8573 10.9864 13.3344 11.3789C14.5004 11.7015 15.5567 12.3352 16.39 13.2122L16.5428 13.3833L16.8728 13.7622V16.6406H19.2806V11.5561L19.1522 11.385Z" fill="#36404B" fill-opacity="0.75"/>
<path d="M6.78333 8.67171H6.97277C6.88475 7.91591 7.01736 7.15079 7.35461 6.46871C7.69186 5.78662 8.21932 5.21673 8.87333 4.82782C8.63626 4.46565 8.30919 4.17125 7.92415 3.97346C7.53912 3.77566 7.10931 3.68126 6.67683 3.69948C6.24435 3.71771 5.82401 3.84794 5.45698 4.07742C5.08995 4.30691 4.78881 4.62778 4.58305 5.00862C4.37729 5.38945 4.27397 5.8172 4.28319 6.24997C4.29241 6.68274 4.41387 7.10569 4.63567 7.47742C4.85747 7.84914 5.17201 8.15689 5.54848 8.37053C5.92496 8.58417 6.35046 8.69637 6.78333 8.69615V8.67171Z" fill="#36404B" fill-opacity="0.75"/>
<path d="M14.9294 8.21329C14.9369 8.35374 14.9369 8.4945 14.9294 8.63495C15.0467 8.65354 15.1652 8.66376 15.2839 8.66551H15.4C15.831 8.64253 16.2486 8.50835 16.6123 8.27604C16.9761 8.04372 17.2734 7.72119 17.4755 7.33984C17.6775 6.95848 17.7774 6.53131 17.7654 6.0999C17.7533 5.66849 17.6298 5.24755 17.4068 4.87806C17.1838 4.50857 16.8689 4.20312 16.4928 3.99144C16.1167 3.77977 15.6922 3.66909 15.2606 3.67017C14.829 3.67126 14.4051 3.78408 14.0301 3.99764C13.655 4.2112 13.3417 4.51823 13.1205 4.88884C13.6737 5.24997 14.1285 5.74275 14.4442 6.32298C14.7599 6.90321 14.9266 7.55273 14.9294 8.21329Z" fill="#36404B" fill-opacity="0.75"/>
<path d="M10.9206 10.9511C12.4292 10.9511 13.6522 9.72812 13.6522 8.21946C13.6522 6.7108 12.4292 5.48779 10.9206 5.48779C9.41191 5.48779 8.1889 6.7108 8.1889 8.21946C8.1889 9.72812 9.41191 10.9511 10.9206 10.9511Z" fill="#36404B" fill-opacity="0.75"/>
<path d="M11.0672 12.4056C10.2692 12.3734 9.4728 12.503 8.72609 12.7865C7.97939 13.0701 7.29776 13.5018 6.72224 14.0556L6.56946 14.2267V18.0951C6.57184 18.2211 6.59903 18.3454 6.64946 18.4609C6.69989 18.5764 6.77259 18.6808 6.86339 18.7682C6.95419 18.8556 7.06131 18.9242 7.17865 18.9702C7.29599 19.0162 7.42123 19.0386 7.54724 19.0362H14.5689C14.6949 19.0386 14.8202 19.0162 14.9375 18.9702C15.0548 18.9242 15.162 18.8556 15.2528 18.7682C15.3436 18.6808 15.4162 18.5764 15.4667 18.4609C15.5171 18.3454 15.5443 18.2211 15.5467 18.0951V14.239L15.4 14.0556C14.8282 13.5001 14.149 13.0672 13.4039 12.7834C12.6589 12.4997 11.8637 12.3711 11.0672 12.4056Z" fill="#36404B" fill-opacity="0.75"/>
</svg>
