<svg width="18" height="20" viewBox="0 0 18 20" fill="none" xmlns="http://www.w3.org/2000/svg">
<path fill-rule="evenodd" clip-rule="evenodd" d="M16.7915 10.8851C17.4589 10.8851 18 10.3427 18 9.6735C18 9.00435 17.4589 8.4619 16.7915 8.4619C16.1241 8.4619 15.583 9.00435 15.583 9.6735C15.583 10.3427 16.1241 10.8851 16.7915 10.8851ZM2.58426 14.7482C0.581954 11.2712 1.77021 6.82517 5.23831 4.81772C5.46707 4.6853 5.69987 4.56686 5.93574 4.46211C5.57132 6.82981 5.97893 9.33475 7.26693 11.5714C8.72529 14.1038 11.0445 15.8278 13.6383 16.5867C13.2895 16.8918 12.906 17.1679 12.4893 17.4091C9.0212 19.4165 4.58657 18.2252 2.58426 14.7482ZM4.43264 3.41868C0.193858 5.87223 -1.25846 11.3063 1.18881 15.556C3.63607 19.8056 9.05618 21.2617 13.295 18.8081C14.3029 18.2247 15.1547 17.4714 15.8337 16.6046C16.2153 16.1175 15.9305 15.3987 15.3195 15.3069C12.6221 14.9016 10.1308 13.3136 8.66239 10.7636C7.33842 8.46458 7.10579 5.8354 7.80432 3.47518C7.98018 2.88095 7.45052 2.31776 6.84851 2.45888C6.01971 2.65317 5.20585 2.97111 4.43264 3.41868Z" fill="#36404B" fill-opacity="0.75"/>
<path fill-rule="evenodd" clip-rule="evenodd" d="M13.5 0C13.0858 0 12.75 0.335786 12.75 0.75V1.75H11.75C11.3358 1.75 11 2.08579 11 2.5C11 2.91421 11.3358 3.25 11.75 3.25H12.75V4.25C12.75 4.66421 13.0858 5 13.5 5C13.9142 5 14.25 4.66421 14.25 4.25V3.25H15.25C15.6642 3.25 16 2.91421 16 2.5C16 2.08579 15.6642 1.75 15.25 1.75H14.25V0.75C14.25 0.335786 13.9142 0 13.5 0Z" fill="#36404B" fill-opacity="0.75"/>
</svg>
