<svg width="20" height="20" viewBox="0 0 20 20" fill="none" xmlns="http://www.w3.org/2000/svg">
<path d="M16.6667 1.66675H3.33332C2.49999 1.66675 1.66666 2.41675 1.66666 3.33341V5.84175C1.66666 6.44175 2.02499 6.95842 2.49999 7.25008V16.6667C2.49999 17.5834 3.41666 18.3334 4.16666 18.3334H15.8333C16.5833 18.3334 17.5 17.5834 17.5 16.6667V7.25008C17.975 6.95842 18.3333 6.44175 18.3333 5.84175V3.33341C18.3333 2.41675 17.5 1.66675 16.6667 1.66675ZM15.8333 16.6667H4.16666V7.50008H15.8333V16.6667ZM16.6667 5.83342H3.33332V3.33341H16.6667V5.83342Z" fill="#36404B" fill-opacity="0.75"/>
<path d="M7.5 10H12.5V11.6667H7.5V10Z" fill="#36404B" fill-opacity="0.75"/>
</svg>
