<svg width="16" height="20" viewBox="0 0 16 20" fill="none" xmlns="http://www.w3.org/2000/svg">
<path fill-rule="evenodd" clip-rule="evenodd" d="M8 1.98753H2.5C2.22386 1.98753 2 2.20999 2 2.48441V17.3005C2 17.7867 2.63021 17.9835 2.91011 17.5847L4.07396 15.9264C4.43412 15.4132 5.17616 15.3544 5.61352 15.8045L7.61164 17.8607C7.81876 18.0739 8.16636 18.0607 8.35648 17.8324L9.99227 15.8685C10.3944 15.3857 11.1403 15.3888 11.5383 15.8749L13.1122 17.7972C13.4092 18.1599 14 17.9512 14 17.4836V2.49781C14 2.22386 13.7769 2.0016 13.5012 2.00093L8 1.98753ZM13.5061 0.0134057L8.0049 0H2.5C1.11929 0 0 1.11231 0 2.48441V17.3005C0 19.7317 3.15102 20.7158 4.55055 18.7217L5.01912 18.054L6.17295 19.2414C7.20855 20.3071 8.94658 20.241 9.89716 19.0997L10.756 18.0686L11.5608 19.0516C13.0458 20.8652 16 19.8217 16 17.4836V2.49781C16 1.12808 14.8844 0.016763 13.5061 0.0134057ZM8.99976 4.96881C8.99976 4.41997 8.55204 3.97505 7.99976 3.97505C7.44747 3.97505 6.99976 4.41997 6.99976 4.96881V5.32291C5.86915 5.48349 5 6.4497 5 7.61765C5 8.89795 6.0444 9.93583 7.33273 9.93583H8.6691C8.85286 9.93583 9.00183 10.0839 9.00183 10.2665C9.00183 10.4491 8.85286 10.5971 8.6691 10.5971H6.33349C5.7812 10.5971 5.33349 11.0421 5.33349 11.5909C5.33349 12.1397 5.7812 12.5847 6.33349 12.5847H6.99976V12.9153C6.99976 13.4642 7.44747 13.9091 7.99976 13.9091C8.55204 13.9091 8.99976 13.4642 8.99976 12.9153V12.5616C10.1315 12.402 11.0018 11.4352 11.0018 10.2665C11.0018 8.9862 9.95743 7.94831 8.6691 7.94831H7.33273C7.14897 7.94831 7 7.80027 7 7.61765C7 7.43504 7.14897 7.287 7.33273 7.287H9.66834C10.2206 7.287 10.6683 6.84207 10.6683 6.29323C10.6683 5.74439 10.2206 5.29947 9.66834 5.29947H8.99976V4.96881Z" fill="#36404B" fill-opacity="0.75"/>
</svg>
