<svg width="18" height="20" viewBox="0 0 18 20" fill="none" xmlns="http://www.w3.org/2000/svg">
<path fill-rule="evenodd" clip-rule="evenodd" d="M3.74743 14.6585C4.11111 15.0741 4.74287 15.1163 5.15851 14.7526C5.57414 14.3889 5.61626 13.7571 5.25258 13.3415L3.20377 11H13C13.5523 11 14 10.5523 14 10C14 9.44771 13.5523 9 13 9H3.20377L5.25258 6.6585C5.61626 6.24287 5.57414 5.6111 5.15851 5.24742C4.74287 4.88374 4.11111 4.92586 3.74743 5.34149L0.247423 9.34149C-0.0824745 9.71852 -0.0824745 10.2815 0.247423 10.6585L3.74743 14.6585ZM13 2C12.4477 2 12 1.55228 12 1C12 0.447715 12.4477 -2.41411e-08 13 0L16 1.31134e-07C17.1046 1.79416e-07 18 0.895431 18 2V18C18 19.1046 17.1046 20 16 20H13C12.4477 20 12 19.5523 12 19C12 18.4477 12.4477 18 13 18H16V2L13 2Z" fill="#36404B" fill-opacity="0.75"/>
</svg>
